<?xml version="1.0" encoding="UTF-8"?>
<!DOCTYPE svg PUBLIC "-//W3C//DTD SVG 1.1//EN" "http://www.w3.org/Graphics/SVG/1.1/DTD/svg11.dtd">
<!-- Creator: CorelDRAW 2019 (64-Bit) -->
<svg xmlns="http://www.w3.org/2000/svg" xmlSpace="preserve" width="1224px" height="800px" version="1.1" style="shape-rendering:geometricPrecision; text-rendering:geometricPrecision; image-rendering:optimizeQuality; fill-rule:evenodd; clip-rule:evenodd"
viewBox="0 0 122.72 80.18"
 xmlnsXlink="http://www.w3.org/1999/xlink"
 xmlnsXodm="http://www.corel.com/coreldraw/odm/2003">
 <defs>
  <style type="text/css">
    .fil0 {fill:black;fill-rule:nonzero}
  </style>
 </defs>
 <g id="Layer_x0020_1">
  <metadata id="CorelCorpID_0Corel-Layer"/>
  <path class="fil0" d="M94.7 80.18c-6.54,0 -12.17,-2.32 -16.87,-6.95 -4.71,-4.64 -7.06,-10.43 -7.06,-17.39 0,-13.36 7.06,-26.01 21.17,-37.94 14.11,-11.93 23.08,-17.9 26.9,-17.9 2.59,0 3.88,1.16 3.88,3.48 0,1.22 -4.7,5.72 -14.11,13.5 -10.36,8.72 -15.54,16.16 -15.54,22.29 0,3.55 3.13,6.89 9.41,10.03 6.81,3.41 10.22,8.31 10.22,14.72 0,4.37 -1.63,8.15 -4.91,11.35 -3.27,3.21 -7.63,4.81 -13.09,4.81zm-70.77 0c-6.41,0 -12,-2.32 -16.77,-6.95 -4.78,-4.64 -7.16,-10.43 -7.16,-17.39 0,-13.36 7.06,-26.01 21.17,-37.94 14.11,-11.93 23.08,-17.9 26.9,-17.9 2.72,0 4.09,1.16 4.09,3.48 0,1.22 -4.78,5.72 -14.32,13.5 -10.36,8.72 -15.54,16.16 -15.54,22.29 0,3.55 3.13,6.89 9.4,10.03 6.96,3.41 10.44,8.31 10.44,14.72 0,4.37 -1.68,8.15 -5.01,11.35 -3.35,3.21 -7.75,4.81 -13.2,4.81z"/>
 </g>
</svg>