<?xml version="1.0" standalone="no"?>
<!DOCTYPE svg PUBLIC "-//W3C//DTD SVG 20010904//EN"
 "http://www.w3.org/TR/2001/REC-SVG-20010904/DTD/svg10.dtd">
<svg version="1.0" xmlns="http://www.w3.org/2000/svg"
 width="700.000000pt" height="700.000000pt" viewBox="0 0 700.000000 700.000000"
 preserveAspectRatio="xMidYMid meet">
<metadata>
Created by potrace 1.14, written by Peter Selinger 2001-2017
</metadata>
<g transform="translate(0.000000,700.000000) scale(0.100000,-0.100000)"
fill="#000000" stroke="none">
<path d="M3558 6195 c-2 -2 -52 -6 -113 -10 -60 -4 -112 -8 -115 -10 -3 -1
-32 -6 -65 -9 -205 -23 -560 -110 -710 -176 -184 -80 -318 -146 -355 -174 -8
-7 -26 -17 -40 -24 -30 -15 -179 -122 -246 -177 -90 -72 -278 -270 -352 -368
-121 -161 -231 -348 -306 -519 -9 -21 -23 -54 -32 -75 -83 -187 -189 -584
-220 -821 -2 -19 -6 -47 -9 -61 -4 -24 -14 -108 -21 -176 -22 -211 -22 -774 0
-890 2 -11 7 -51 10 -90 4 -38 9 -77 11 -85 2 -8 6 -33 10 -55 6 -43 15 -99
21 -127 118 -561 371 -966 767 -1227 70 -47 264 -151 281 -151 3 0 25 -9 49
-19 120 -54 401 -127 567 -146 25 -3 56 -7 70 -10 150 -27 676 -27 885 0 17 3
46 6 65 9 456 59 893 232 1225 483 403 305 713 761 893 1313 33 101 91 307 99
349 2 14 8 44 13 66 12 56 48 262 54 310 22 183 24 200 32 340 15 242 6 600
-20 785 -95 667 -343 1109 -787 1400 -280 184 -626 290 -1094 336 -65 6 -561
14 -567 9z"/>
</g>
</svg>
