<?xml version="1.0" encoding="iso-8859-1"?>
<!-- Generator: Adobe Illustrator 19.0.0, SVG Export Plug-In . SVG Version: 6.00 Build 0)  -->
<svg version="1.1" id="Layer_1" xmlns="http://www.w3.org/2000/svg" xmlns:xlink="http://www.w3.org/1999/xlink" x="0px" y="0px"
	 viewBox="0 0 150 50" style="enable-background:new 0 0 490 490;" xml:space="preserve">
<g data-v-2cb57da0="" fill="#1F85DE" class="basesvg" ><g data-gra="path-name" fill-rule="" class="tp-name" opacity="1" transform="matrix(1,0,0,1,0,0)"><g transform="scale(1)"><g><path d="M16.44-33.6C9.84-33.6 2.7-30.72 2.7-22.5 2.7-11.34 15.84-13.32 15.84-8.76 15.84-7.08 13.98-6.78 12-6.78 6.72-6.78 6.06-9 4.08-9 1.74-9 0.6-5.82 0.6-4.44 0.6-0.66 8.82 0.6 13.32 0.6 21.42 0.6 25.56-3.48 25.56-9.24 25.56-19.98 11.28-18.12 11.28-23.1 11.28-24.72 12.78-25.92 15-25.92 18.3-25.92 18.42-23.34 18.48-21.9 18.48-21.24 18.78-21.06 19.92-21.06 24.06-21.06 26.34-22.98 26.34-26.46 26.34-30.6 23.16-33.6 16.44-33.6ZM44.52 0.6C49.86 0.6 56.28-1.26 56.28-5.94 56.28-9.54 52.5-10.2 51.72-10.2 50.04-10.2 50.1-6.9 45.9-6.9 41.82-6.9 40.2-9.96 40.2-13.02 44.1-13.02 58.98-13.62 58.98-24.6 58.98-29.52 56.04-33.6 47.7-33.6 32.22-33.6 29.88-19.5 29.88-13.44 29.88-2.52 37.56 0.6 44.52 0.6ZM45.66-25.62C47.7-25.62 48.72-24.12 48.72-22.5 48.72-19.56 45.3-17.88 40.38-17.82 40.8-21.24 42.12-25.62 45.66-25.62ZM83.04-5.28C83.04-1.92 84.18 0 89.22 0L91.14 0C92.52 0 92.76-0.12 92.76-1.86 92.76-3.9 94.38-18.84 94.38-22.74 94.38-30.9 91.2-33.6 84.48-33.6 79.68-33.6 76.74-32.22 74.22-27.96 74.04-30.6 72.78-33 67.98-33L65.64-33C65.1-33 64.86-33 64.68-32.82 64.5-32.64 64.44-32.22 64.38-31.26 63.12-13.62 62.58-8.16 62.58-5.7 62.58-2.04 63.78 0 68.7 0L70.86 0C71.88 0 72.12-0.24 72.18-1.2 73.56-21.06 75.12-25.56 80.64-25.56 83.52-25.56 84.3-23.64 84.3-21.54 84.3-17.58 83.04-8.76 83.04-5.28ZM115.8-24.9C119.4-24.9 120.18-26.52 120.36-28.92L120.6-32.16C120.6-32.76 120.24-33 119.64-33L113.34-33C113.46-34.56 113.52-35.76 113.52-36.54 113.52-39.42 112.44-41.82 109.08-41.82L107.34-41.82C106.26-41.82 104.46-35.88 103.32-33 99.6-33 99.12-30.84 99-28.8L98.82-25.74C98.82-25.2 98.88-24.9 99.48-24.9L102.66-24.9C101.82-13.56 101.28-10.02 101.28-7.56 101.28-2.1 103.98 0.6 109.74 0.6 115.56 0.6 117.72-2.16 117.72-6.54 117.72-8.82 117.12-9.24 116.58-9.24 115.5-9.24 114.84-7.68 113.04-7.68 111.96-7.68 111.48-8.22 111.48-10.26 111.48-12.54 112.08-18.9 112.62-24.9ZM128.4-10.68C123.9-10.68 122.52-7.5 122.52-4.32 122.52-1.56 123.54 0.6 127.2 0.6 132.12 0.6 133.08-3.54 133.08-6 133.08-8.94 131.76-10.68 128.4-10.68Z" transform="translate(-0.6000000238418579, 41.81999969482422)"></path></g> <!----> <!----> <!----> <!----> <!----> <!----> <!----></g></g> <!----></g>
</svg>
